<svg width="10" height="18" xmlns="http://www.w3.org/2000/svg" fill="none">

 <mask height="17" width="9" y="3" x="6" maskUnits="userSpaceOnUse" id="mask0_1_370">
  <path id="svg_1" fill="white" d="m11.8423,20l0,-7.7539l2.6524,0l0.3979,-3.02277l-3.0503,0l0,-1.92958c0,-0.87488 0.2466,-1.4711 1.5272,-1.4711l1.6305,-0.00066l0,-2.70364c-0.282,-0.03595 -1.2499,-0.11835 -2.3765,-0.11835c-2.3525,0 -3.96302,1.40842 -3.96302,3.99438l0,2.22895l-2.66048,0l0,3.02277l2.66048,0l0,7.7539l3.18182,0z" clip-rule="evenodd" fill-rule="evenodd"/>
 </mask>
 <g>
  <title>Layer 1</title>
  <path id="svg_2" fill="#3B5998" d="m6.0423,17.4l0,-7.7539l2.6524,0l0.3979,-3.02277l-3.0503,0l0,-1.92958c0,-0.87488 0.2466,-1.4711 1.5272,-1.4711l1.6305,-0.00066l0,-2.70364c-0.282,-0.03595 -1.2499,-0.11835 -2.3765,-0.11835c-2.3525,0 -3.96302,1.40842 -3.96302,3.99438l0,2.22895l-2.66048,0l0,3.02277l2.66048,0l0,7.7539l3.18182,0z" clip-rule="evenodd" fill-rule="evenodd"/>
  <g id="svg_3" mask="url(#mask0_1_370)"/>
 </g>
</svg>