<svg width="18" height="13" xmlns="http://www.w3.org/2000/svg" fill="none">

 <g>
  <title>Layer 1</title>
  <path id="svg_1" fill="#C4302B" d="m17.29833,1.2139c-0.6497,-0.77237 -1.8493,-1.08743 -4.1403,-1.08743l-8.31633,0c-2.34343,0 -3.56336,0.33538 -4.21067,1.15769c-0.6311,0.80176 -0.6311,1.98308 -0.6311,3.61806l0,3.1163c0,3.1674 0.7488,4.7757 4.84177,4.7757l8.31633,0c1.9868,0 3.0877,-0.2781 3.7999,-0.9597c0.7304,-0.699 1.042,-1.8402 1.042,-3.816l0,-3.1163c0,-1.72422 -0.0488,-2.91252 -0.7016,-3.68832zm-5.7423,5.67668l-3.77644,1.97364c-0.08443,0.0442 -0.17675,0.0661 -0.26896,0.0661c-0.1044,0 -0.20856,-0.0282 -0.30083,-0.084c-0.17373,-0.1053 -0.27981,-0.2936 -0.27981,-0.4967l0,-3.93468c0,-0.20276 0.10579,-0.39089 0.27917,-0.49622c0.17344,-0.10532 0.38915,-0.11252 0.56909,-0.01904l3.77638,1.96095c0.1922,0.09976 0.3128,0.29811 0.3131,0.51451c0.0002,0.21658 -0.1199,0.41522 -0.3117,0.51544z"/>
 </g>
</svg>